# AST/ASF file generated using VICON BodyLanguage
# -----------------------------------------------
:version 1.10
:name VICON
:units
  mass 1.0
  length 0.45
  angle deg
:documentation
   .ast/.asf automatically generated from VICON data using
   VICON BodyBuilder and BodyLanguage model FoxedUp or BRILLIANT.MOD
:root
   order TX TY TZ RX RY RZ
   axis XYZ
   position 0 0 0  
   orientation 0 0 0 
:bonedata
  begin
     id 1 
     name lhipjoint
     direction 0.722297 -0.617336 0.311742 
     length 2.6635 
     axis 0 0 0  XYZ
  end
  begin
     id 2 
     name lfemur
     direction 0.34202 -0.939693 0  
     length 7.39349  
     axis 0 0 20  XYZ
    dof rx ry rz
    limits (-160.0 20.0)
           (-70.0 70.0)
           (-60.0 70.0)
  end
  begin
     id 3 
     name ltibia
     direction 0.34202 -0.939693 0   
     length 7.36294   
     axis 0 0 20   XYZ
    dof rx
    limits (-10.0 170.0)
  end
  begin
     id 4 
     name lfoot
     direction 0.104879 -0.288152 0.951824   
     length 2.16981   
     axis -90 7.62852e-016 20   XYZ
    dof rx rz
    limits (-45.0 90.0)
           (-70.0 20.0)
  end
  begin
     id 5 
     name ltoes
     direction 1.53586e-011 -4.21895e-011 1   
     length 1.08218   
     axis -90 7.62852e-016 20   XYZ
    dof rx
    limits (-90.0 20.0)
  end
  begin
     id 6 
     name rhipjoint
     direction -0.75102 -0.589393 0.297631   
     length 2.78977  
     axis 0 0 0  XYZ 
  end
  begin
     id 7 
     name rfemur
     direction -0.34202 -0.939693 0   
     length 7.46076   
     axis 0 0 -20   XYZ
    dof rx ry rz
    limits (-160.0 20.0)
           (-70.0 70.0)
           (-70.0 60.0)
  end
  begin
     id 8 
     name rtibia
     direction -0.34202 -0.939693 0   
     length 7.31726   
     axis 0 0 -20   XYZ
    dof rx
    limits (-10.0 170.0)
 end
 begin
     id 9 
     name rfoot
     direction -0.107991 -0.296704 0.948844   
     length 2.09388  
     axis -90 -7.62852e-016 -20   XYZ
    dof rx rz
    limits (-45.0 90.0)
           (-20.0 70.0)
  end
  begin
     id 10 
     name rtoes
     direction -1.53559e-011 -4.21911e-011 1   
     length 1.04433   
     axis -90 -7.62852e-016 -20   XYZ
    dof rx
    limits (-90.0 20.0)
  end
  begin
     id 11 
     name lowerback
     direction 0.0165164 0.98272 0.184358   
     length 1.71896   
     axis 0 0 0   XYZ
    dof rx ry rz
    limits (-20.0 45.0)
           (-30.0 30.0)
           (-30.0 30.0)
  end
  begin
     id 12 
     name upperback
     direction -0.00887249 0.992297 0.123566   
     length 1.71504   
     axis 0 0 0   XYZ
    dof rx ry rz
    limits (-20.0 45.0)
           (-30.0 30.0)
           (-30.0 30.0)
  end
  begin
     id 13 
     name thorax
     direction -0.0157026 0.998908 0.0440032   
     length 1.77022   
     axis 0 0 0   XYZ
    dof rx ry rz
    limits (-20.0 45.0)
           (-30.0 30.0)
           (-30.0 30.0)
  end
  begin
     id 14 
     name lowerneck
     direction -0.0238856 0.998137 0.0561411   
     length 1.89341   
     axis 0 0 0   XYZ
    dof rx ry rz
    limits (-20.0 45.0)
           (-30.0 30.0)
           (-30.0 30.0)
  end
  begin
     id 15 
     name upperneck
     direction 0.0276574 0.952253 -0.304056   
     length 1.86999   
     axis 0 0 0   XYZ
    dof rx ry rz
    limits (-20.0 45.0)
           (-30.0 30.0)
           (-30.0 30.0)
  end
  begin
     id 16
     name head
     direction 0.00800083 0.994258 -0.106712  
     length 1.91492  
     axis 0 0 0   XYZ
    dof rx ry rz
    limits (-20.0 45.0)
           (-30.0 30.0)
           (-30.0 30.0)
  end
  begin
     id 17 
     name lclavicle
     direction 0.97203 0.225407 0.06595  
     length 3.34889  
     axis 0 0 0   XYZ
    dof ry rz
    limits (-20.0 10.0)
           (0.0 20.0)
  end
  begin
     id 18 
     name lhumerus
     direction 1 -4.48973e-011 2.20267e-027   
     length 4.85645   
     axis 180 -30 -90   XYZ
    dof rx ry rz
    limits (-60.0 90.0)
           (-90.0 90.0)
           (-90.0 90.0)
  end
  begin
     id 19
     name lradius
     direction 1 -4.4897e-011 4.60472e-027   
     length 2.79874   
     axis 180 -30 -90   XYZ
    dof rx
    limits (-10.0 170.0)
  end
  begin
     id 20
     name lwrist
     direction 1 -4.48952e-011 1.14928e-026   
     length 1.39937   
     axis -6.29373e-015 90 90   XYZ
    dof ry
    limits (-180.0 0.0)
 end
  begin
     id 21 
     name lhand
     direction 1 -4.48967e-011 2.29886e-026   
     length 0.573398   
     axis -1.46689e-014 90 90   XYZ
    dof rx rz
    limits (-90.0 90.0)
           (-45.0 45.0)
  end
  begin
     id 22 
     name lfingers
     direction 1 -4.48955e-011 4.59726e-026   
     length 0.462289   
     axis -2.93383e-014 90 90   XYZ
    dof rx
    limits (0.0 90.0)
  end
  begin
     id 23
     name lthumb
     direction 0.707107 -6.34866e-011 0.707107   
     length 0.663757   
     axis -90 45 5.69224e-014   XYZ
    dof rx rz
    limits (-45.0 45.0)
           (-45.0 45.0)
  end
  begin
     id 24 
     name rclavicle
     direction -0.981571 0.157346 0.108443   
     length 3.35257  
     axis 0 0 0   XYZ 
    dof ry rz
    limits (-10.0 20.0)
           (-20.0 0.0)
  end
  begin
     id 25 
     name rhumerus
     direction -1 -4.48967e-011 8.58308e-029  
     length 4.67018   
     axis 180 30 90   XYZ
    dof rx ry rz
    limits (-90.0 60.0)
           (-90.0 90.0)
           (-90.0 90.0)
  end
  begin
     id 26 
     name rradius
     direction -1 -4.48958e-011 4.52548e-027   
     length 2.65534   
     axis 180 30 90   XYZ
    dof rx
    limits (-10.0 170.0)
  end
  begin
     id 27 
     name rwrist
     direction -1 -4.48977e-011 1.14952e-026   
     length 1.32767   
     axis -6.29373e-015 -90 -90   XYZ
    dof ry
    limits (-180.0 0.0)
  end
  begin
     id 28
     name rhand
     direction -1 -4.48924e-011 2.29804e-026   
     length 0.594069   
     axis -1.46689e-014 -90 -90   XYZ
    dof rx rz
    limits (-90.0 90.0)
           (-45.0 45.0)
  end
  begin
     id 29
     name rfingers
     direction -1 -4.48998e-011 4.59888e-026   
     length 0.478954   
     axis -2.93383e-014 -90 -90   XYZ
    dof rx
    limits (0.0 90.0)
  end
  begin
     id 30
     name rthumb
     direction -0.707107 -6.34933e-011 0.707107   
     length 0.687685   
     axis -90 -45 -5.69224e-014   XYZ
    dof rx rz
    limits (-45.0 45.0)
           (-45.0 45.0)
  end
:hierarchy
  begin
    root lhipjoint rhipjoint lowerback
    lhipjoint lfemur
    lfemur ltibia
    ltibia lfoot
    lfoot ltoes
    rhipjoint rfemur
    rfemur rtibia
    rtibia rfoot
    rfoot rtoes
    lowerback upperback
    upperback thorax
    thorax lowerneck lclavicle rclavicle
    lowerneck upperneck
    upperneck head
    lclavicle lhumerus
    lhumerus lradius
    lradius lwrist
    lwrist lhand lthumb
    lhand lfingers
    rclavicle rhumerus
    rhumerus rradius
    rradius rwrist
    rwrist rhand rthumb
    rhand rfingers
  end

#!OML:ASF E:\pregnant2\Project 1\Capture day 1\Session 1\pregnant2.ASF
:FULLY-SPECIFIED
:DEGREES
490
root 5.71882 16.9707 -22.2895 -144.657 51.2354 180.609
lowerback -25.3526 -3.08894 4.41358
upperback -18.3486 -1.43493 4.47327
thorax -6.67766 0.613835 2.00773
lowerneck -9.43914 -10.3333 -14.7513
upperneck 34.9713 -10.5431 1.29255
head 14.6774 -5.68534 1.52117
rclavicle 1.27222e-014 6.83819e-014
rhumerus -48.7845 13.815 -89.6021
rradius 46.2196
rwrist -4.89631
rhand -6.11179 -21.3412
rfingers 7.12502
rthumb 19.7249 -50.3604
lclavicle 1.27222e-014 6.83819e-014
lhumerus -54.2811 8.26227 85.1107
lradius 37.3829
lwrist -5.76972
lhand -19.7962 33.1321
lfingers 7.12502
lthumb 6.5366 63.0112
rfemur -55.8603 11.608 21.8029
rtibia 38.1316
rfoot -13.5876 7.27722
rtoes 9.17129
lfemur -63.1701 0.00801388 -12.3294
ltibia 60.7165
lfoot -14.5661 3.75153
ltoes -22.2511
491
root 5.7294 16.9809 -22.3592 -144.101 52.6303 181.065
lowerback -25.4336 -2.90834 4.55573
upperback -18.3818 -1.25277 4.50079
thorax -6.69145 0.684151 1.99392
lowerneck -9.59587 -10.2011 -14.6102
upperneck 34.9305 -10.4074 1.3507
head 14.6675 -5.61085 1.53938
rclavicle -1.55052e-014 -1.98785e-014
rhumerus -48.6934 14.0432 -89.9246
rradius 46.4583
rwrist -4.59522
rhand -6.40857 -21.3926
rfingers 7.12502
rthumb 19.4396 -50.4408
lclavicle -1.55052e-014 -1.98785e-014
lhumerus -54.4314 8.25533 84.7967
lradius 37.1528
lwrist -5.80937
lhand -19.7693 33.2198
lfingers 7.12502
lthumb 6.56252 63.0981
rfemur -55.8163 12.1992 21.4583
rtibia 37.8068
rfoot -13.4272 7.9769
rtoes 9.16774
lfemur -63.2654 0.044236 -11.2363
ltibia 59.8503
lfoot -15.2046 2.9369
ltoes -22.2065
492
root 5.73942 16.9949 -22.4332 -143.806 53.8379 181.305
lowerback -25.4684 -2.79687 4.6837
upperback -18.3966 -1.16619 4.48554
thorax -6.70189 0.699471 1.92348
lowerneck -9.7476 -10.0767 -14.4523
upperneck 34.8842 -10.2895 1.40901
head 14.6542 -5.54185 1.55212
rclavicle -2.34566e-014 -4.92986e-014
rhumerus -48.5916 14.2422 -90.2364
rradius 46.6058
rwrist -4.03554
rhand -6.71053 -21.4656
rfingers 7.12502
rthumb 19.1492 -50.5429
lclavicle -2.34566e-014 -4.92986e-014
lhumerus -54.5729 8.24033 84.4708
lradius 36.9164
lwrist -5.86523
lhand -19.7686 33.354
lfingers 7.12502
lthumb 6.5632 63.2323
rfemur -55.6531 12.6071 21.0601
rtibia 37.4829
rfoot -13.3088 8.58833
rtoes 9.14999
lfemur -63.2205 -0.186504 -10.1611
ltibia 58.8736
lfoot -15.8408 2.01932
ltoes -22.2692
493
root 5.75001 17.0109 -22.5077 -143.531 55.0442 181.539
lowerback -25.5107 -2.67653 4.81514
upperback -18.3948 -1.07521 4.44787
thorax -6.68833 0.713248 1.82712
lowerneck -9.89029 -9.96207 -14.2941
upperneck 34.8279 -10.1995 1.49752
head 14.6389 -5.48105 1.57261
rclavicle 5.32743e-014 -6.99722e-014
rhumerus -48.4866 14.4069 -90.5452
rradius 46.7025
rwrist -3.29448
rhand -6.85557 -21.4198
rfingers 7.12502
rthumb 19.0097 -50.5109
lclavicle 5.32743e-014 -6.99722e-014
lhumerus -54.6904 8.20205 84.1289
lradius 36.6711
lwrist -5.94253
lhand -19.7912 33.5131
lfingers 7.12502
lthumb 6.54136 63.3921
rfemur -55.465 12.9936 20.658
rtibia 37.1446
rfoot -13.1878 9.20257
rtoes 9.0825
lfemur -63.0825 -0.462493 -9.07762
ltibia 57.8082
lfoot -16.5221 1.01801
ltoes -22.547
494
root 5.76069 17.0289 -22.5827 -143.254 56.2556 181.775
lowerback -25.5581 -2.54844 4.94912
upperback -18.387 -0.977051 4.39722
thorax -6.66486 0.729018 1.71641
lowerneck -10.0258 -9.85821 -14.1378
upperneck 34.7693 -10.1323 1.60212
head 14.6245 -5.42812 1.59615
rclavicle 8.34896e-015 3.73715e-014
rhumerus -48.4101 14.5751 -90.8567
rradius 46.793
rwrist -2.44896
rhand -6.93009 -21.3256
rfingers 7.12502
rthumb 18.9381 -50.4237
lclavicle 8.34896e-015 3.73715e-014
lhumerus -54.7928 8.15068 83.7738
lradius 36.411
lwrist -6.06383
lhand -19.8026 33.6847
lfingers 7.12502
lthumb 6.53037 63.5641
rfemur -55.2662 13.3629 20.2509
rtibia 36.7809
rfoot -13.0517 9.83133
rtoes 9.01287
lfemur -62.8781 -0.788295 -7.97838
ltibia 56.6664
lfoot -17.2545 -0.0815279
ltoes -22.9142
